# xmcd
#
# Track frame offsets:
#	150
#	18878
#	36925
#	54315
#	71255
#	91399
#	109617
#	125492
#	141877
#	163320
#	180242
#	198853
#	217437
#	233039
#	247504
#	264483
#	281546
#	310576
#
# Disc length: 4145 seconds
#
# Revision: 1
# Processed by: cddbd v1.5.2PL0 Copyright (c) Steve Scherf et al.
# Submitted via: audiograbber 1.83.01
#
DISCID=f1102f12
DTITLE=Various Artist - 5143-01
DYEAR=2010
DGENRE=Country
TTITLE0=Jason Aldean - My Kinda Party
TTITLE1=Rascal Flats - Why Wait
TTITLE2=Reba McEnttire - Turn On The Radio
TTITLE3=Clay Walker - Where Do I Go From You
TTITLE4=Brad Paisley - Anything Like Me
TTITLE5=Matt Kennon - The Call
TTITLE6=Gretchen Wilson - I Got Your Country Right Here
TTITLE7=Josh Turner - All Over Me
TTITLE8=Keith Urban - I'm In
TTITLE9=Easton Corbin - Roll With It
TTITLE10=Taylor Swift - Mine
TTITLE11=Gary Allan - Get Off On The Pain
TTITLE12=Jaron And The Long Road To Love - Pray For You
TTITLE13=Justin Moore - How I Got To Be This Way
TTITLE14=Laura Bell Bundy - Giddy On Up
TTITLE15=George Strait - The Breath You Take
TTITLE16=Billy Currington - Let Me Down Easy
TTITLE17=Data Track - Data Track
EXTD=
EXTT0=
EXTT1=
EXTT2=
EXTT3=
EXTT4=
EXTT5=
EXTT6=
EXTT7=
EXTT8=
EXTT9=
EXTT10=
EXTT11=
EXTT12=
EXTT13=
EXTT14=
EXTT15=
EXTT16=
EXTT17=
PLAYORDER=
